<svg width="32" height="32" viewBox="0 0 32 32" fill="none" xmlns="http://www.w3.org/2000/svg">
<path fill-rule="evenodd" clip-rule="evenodd" d="M8.44444 2.66666H23.5556C23.9683 2.66666 24.1746 2.66666 24.3486 2.68263C26.2824 2.86013 27.8156 4.46872 27.9848 6.49761C28 6.68014 28 6.89666 28 7.32968V27.013C28 28.1764 26.5884 28.6701 25.9231 27.7394C25.4615 27.0937 24.5385 27.0937 24.0769 27.7394L23.5 28.5464C22.75 29.5956 21.25 29.5956 20.5 28.5464C19.75 27.4973 18.25 27.4973 17.5 28.5464C16.75 29.5956 15.25 29.5956 14.5 28.5464C13.75 27.4973 12.25 27.4973 11.5 28.5464C10.75 29.5956 9.25 29.5956 8.5 28.5464L7.92308 27.7394C7.46154 27.0937 6.53846 27.0937 6.07692 27.7394C5.41161 28.6701 4 28.1764 4 27.013V7.32968C4 6.89666 4 6.68014 4.01522 6.49761C4.18441 4.46872 5.71759 2.86013 7.65138 2.68263C7.82536 2.66666 8.03172 2.66666 8.44444 2.66666ZM14.0405 9.95955C13.6499 9.56903 13.0168 9.56903 12.6262 9.95955C12.2357 10.3501 12.2357 10.9832 12.6262 11.3738L14.5858 13.3333L12.6263 15.2929C12.2357 15.6834 12.2357 16.3166 12.6263 16.7071C13.0168 17.0976 13.65 17.0976 14.0405 16.7071L16 14.7475L17.9596 16.7071C18.3501 17.0976 18.9832 17.0976 19.3738 16.7071C19.7643 16.3166 19.7643 15.6834 19.3738 15.2929L17.4142 13.3333L19.3738 11.3738C19.7643 10.9833 19.7643 10.3501 19.3738 9.95957C18.9833 9.56905 18.3501 9.56905 17.9596 9.95957L16 11.9191L14.0405 9.95955ZM10 19.6667C9.44772 19.6667 9 20.1144 9 20.6667C9 21.2189 9.44772 21.6667 10 21.6667H22C22.5523 21.6667 23 21.2189 23 20.6667C23 20.1144 22.5523 19.6667 22 19.6667H10Z" fill="#F5F6FA"/>
</svg>
